<svg width="800" height="804" viewBox="0 0 800 804" fill="none" xmlns="http://www.w3.org/2000/svg">
<g clip-path="url(#clip0_264_219)">
<rect width="800" height="804" rx="4" fill="white"/>
<rect width="800" height="804" rx="5" fill="#D3DB50"/>
<circle cx="610" cy="120" r="48" fill="#E48D3A"/>
<path d="M308.871 528.905C316.307 516.961 333.693 516.961 341.129 528.905L497.443 779.958C505.323 792.614 496.222 809 481.314 809H168.686C153.778 809 144.677 792.614 152.557 779.957L308.871 528.905Z" fill="#EB9A4D" fill-opacity="0.69"/>
<path d="M121.948 435.367C129.216 422.472 147.784 422.472 155.052 435.367L371.515 819.421C378.654 832.087 369.502 847.75 354.963 847.75H-77.9633C-92.5022 847.75 -101.654 832.087 -94.5152 819.421L121.948 435.367Z" fill="#EB9A4D" fill-opacity="0.71"/>
<g filter="url(#filter0_b_264_219)">
<rect x="508" y="383" width="292" height="421" rx="4" fill="#EB9A4D" fill-opacity="0.79"/>
</g>
<path d="M653 804.227H397V772.227C397 770.627 400 770.227 401.5 770.227H473C475.8 770.227 476.167 766.227 476 764.227C475.833 753.894 475.6 732.627 476 730.227C476.4 727.827 480.167 727.227 482 727.227H560V672.227C560 671.027 563.667 670.394 565.5 670.227H632C634.4 670.227 635.333 666.227 635.5 664.227V604.727C635.5 602.327 638.5 602.06 640 602.227C660.667 602.394 702.4 602.627 704 602.227C705.6 601.827 707.333 599.06 708 597.727C707.833 580.394 707.6 544.727 708 540.727C708.4 536.727 712.5 536.727 714.5 537.227H799.5V804.227H732.5C732.667 782.727 734 740.227 729.5 732.727C723.473 722.681 711 711.727 692.5 711.727C671.959 711.727 657 727.227 653 744.227V804.227Z" fill="#DC4F46" fill-opacity="0.7"/>
<rect x="584" y="425" width="40" height="55" rx="4" fill="white"/>
<path d="M679 445C679 433.954 687.954 425 699 425C710.046 425 719 433.954 719 445V478C719 479.105 718.105 480 717 480H681C679.895 480 679 479.105 679 478V445Z" fill="white"/>
<rect x="539" y="530" width="40" height="55" rx="4" fill="white"/>
<path d="M541 565.5C541 555.835 548.835 548 558.5 548C568.165 548 576 555.835 576 565.5V583C576 584.105 575.105 585 574 585H543C541.895 585 541 584.105 541 583V565.5Z" fill="#E1D4C8" fill-opacity="0.4"/>
<path d="M586 460.5C586 450.835 593.835 443 603.5 443C613.165 443 621 450.835 621 460.5V478C621 479.105 620.105 480 619 480H588C586.895 480 586 479.105 586 478V460.5Z" fill="#E1D4C8" fill-opacity="0.4"/>
<path d="M681 460.5C681 450.835 688.835 443 698.5 443C708.165 443 716 450.835 716 460.5V478C716 479.105 715.105 480 714 480H683C681.895 480 681 479.105 681 478V460.5Z" fill="#E1D4C8" fill-opacity="0.4"/>
<path fill-rule="evenodd" clip-rule="evenodd" d="M31.089 664.61C46.0312 675.44 56.9633 692.493 60.1007 712.816C63.238 733.138 57.9592 752.703 46.9813 767.549C32.0391 756.719 21.107 739.666 17.9696 719.343C14.8323 699.021 20.1111 679.456 31.089 664.61Z" fill="#D9D9D9"/>
<path fill-rule="evenodd" clip-rule="evenodd" d="M46.7428 767.126C60.4578 779.664 78.7594 786.45 97.9835 784.363C117.207 782.277 133.545 771.73 144.119 756.555C130.404 744.017 112.102 737.231 92.878 739.318C73.6541 741.404 57.3169 751.951 46.7428 767.126Z" fill="#D9D9D9"/>
<path fill-rule="evenodd" clip-rule="evenodd" d="M89.1066 707.436C98.0342 695.361 102.327 679.449 99.7754 662.921C97.2239 646.394 88.334 632.525 76.1827 623.716C67.2552 635.791 62.9625 651.703 65.514 668.231C68.0655 684.758 76.9554 698.627 89.1066 707.436Z" fill="#D9D9D9"/>
<path fill-rule="evenodd" clip-rule="evenodd" d="M88.9082 707.093C100.063 717.292 114.949 722.811 130.585 721.114C146.22 719.416 159.508 710.839 168.108 698.497C156.953 688.298 142.068 682.779 126.432 684.476C110.796 686.173 97.5085 694.751 88.9082 707.093Z" fill="#D9D9D9"/>
<path fill-rule="evenodd" clip-rule="evenodd" d="M131.669 651.404C138.794 641.767 142.221 629.068 140.184 615.877C138.148 602.686 131.053 591.618 121.356 584.588C114.23 594.225 110.804 606.924 112.84 620.115C114.876 633.305 121.971 644.374 131.669 651.404Z" fill="#D9D9D9"/>
<path fill-rule="evenodd" clip-rule="evenodd" d="M131.518 651.128C140.421 659.267 152.301 663.673 164.779 662.318C177.257 660.963 187.861 654.119 194.725 644.269C185.822 636.13 173.942 631.725 161.463 633.079C148.986 634.434 138.382 641.279 131.518 651.128Z" fill="#D9D9D9"/>
<path fill-rule="evenodd" clip-rule="evenodd" d="M165.176 608.566C170.64 601.176 173.268 591.437 171.706 581.322C170.144 571.206 164.703 562.718 157.266 557.326C151.802 564.717 149.175 574.455 150.736 584.571C152.298 594.686 157.739 603.175 165.176 608.566Z" fill="#D9D9D9"/>
<path fill-rule="evenodd" clip-rule="evenodd" d="M165.057 608.357C171.884 614.599 180.995 617.978 190.565 616.939C200.134 615.9 208.267 610.65 213.531 603.096C206.703 596.854 197.592 593.475 188.022 594.514C178.453 595.553 170.32 600.803 165.057 608.357Z" fill="#D9D9D9"/>
<path d="M17.3008 795.057C39.1239 777.563 85.2373 723.102 89.4578 711.326C96.3313 692.148 104.031 686.746 109.062 680.369C136.981 644.981 186.928 580.819 202.112 562.304" stroke="#D9D9D9"/>
<g filter="url(#filter1_f_264_219)">
<path d="M536.611 661L529.111 656L528.5 669.5C529.5 672 532.611 674 532.611 677C532.611 679.55 529.706 681.646 529.111 684.5C526.611 696.5 529.112 709.5 529.112 709.5C529.112 709.5 530.111 723.5 539.611 729.5C543.223 731.781 544.111 729.5 545.611 731C547.111 732.5 543.811 733.5 542.611 735C540.611 737.5 540.611 748 540.611 748V756C540.611 760.528 545.111 759 545.111 759V742C545.111 739.5 549.111 736.5 550.111 735C550.911 733.8 558.111 728.833 561.611 726.5C562.611 716.5 561.611 702.591 559.611 697.5C554.111 683.5 553.5 682.5 549.111 677L551.111 673.5V661L547.611 654L542.611 661H536.611Z" fill="#3F3B3B"/>
</g>
</g>
<defs>
<filter id="filter0_b_264_219" x="504" y="379" width="300" height="429" filterUnits="userSpaceOnUse" color-interpolation-filters="sRGB">
<feFlood flood-opacity="0" result="BackgroundImageFix"/>
<feGaussianBlur in="BackgroundImageFix" stdDeviation="2"/>
<feComposite in2="SourceAlpha" operator="in" result="effect1_backgroundBlur_264_219"/>
<feBlend mode="normal" in="SourceGraphic" in2="effect1_backgroundBlur_264_219" result="shape"/>
</filter>
<filter id="filter1_f_264_219" x="524" y="650" width="42.0034" height="113.248" filterUnits="userSpaceOnUse" color-interpolation-filters="sRGB">
<feFlood flood-opacity="0" result="BackgroundImageFix"/>
<feBlend mode="normal" in="SourceGraphic" in2="BackgroundImageFix" result="shape"/>
<feGaussianBlur stdDeviation="2" result="effect1_foregroundBlur_264_219"/>
</filter>
<clipPath id="clip0_264_219">
<rect width="800" height="804" rx="4" fill="white"/>
</clipPath>
</defs>
</svg>
