<svg width="1232" height="332" viewBox="0 0 1232 332" fill="none" xmlns="http://www.w3.org/2000/svg">
<g clip-path="url(#clip0_267_515)">
<path d="M0 0H1232V332H0V0Z" fill="#D3DB50"/>
<path d="M1088.35 273.961C1089.53 272.164 1092.17 272.164 1093.35 273.961L1100.71 285.104C1101.44 286.207 1102.57 286.977 1103.87 287.245L1114.72 289.498C1117.91 290.159 1117.91 294.711 1114.72 295.373L1103.87 297.625C1102.57 297.894 1101.44 298.664 1100.71 299.767L1093.35 310.91C1092.17 312.706 1089.53 312.706 1088.35 310.91L1080.99 299.767C1080.26 298.664 1079.13 297.894 1077.83 297.625L1066.97 295.373C1063.79 294.711 1063.79 290.159 1066.97 289.498L1077.83 287.245C1079.13 286.977 1080.26 286.207 1080.99 285.104L1088.35 273.961Z" fill="#162A51" stroke="white" stroke-width="2"/>
<path d="M520.886 301.798C521.685 300.857 523.137 300.857 523.936 301.798L526.686 305.039C527.199 305.644 527.912 306.046 528.696 306.172C530.189 306.413 530.189 308.561 528.696 308.802C527.912 308.928 527.199 309.33 526.686 309.935L523.936 313.176C523.137 314.117 521.685 314.117 520.886 313.176L518.136 309.935C517.623 309.33 516.91 308.928 516.126 308.802C514.633 308.561 514.633 306.413 516.126 306.172C516.91 306.046 517.623 305.644 518.136 305.039L520.886 301.798Z" fill="#162A51" stroke="white" stroke-width="2"/>
<path d="M1036.21 57.4871H1021.2L1020.46 47.4564C1020.22 44.2124 1023.74 42.0525 1026.52 43.7411L1036.16 49.5927C1036.54 49.8242 1036.95 50.0107 1037.37 50.1483C1041.44 51.4708 1040.49 57.4871 1036.21 57.4871ZM1004.1 59.4871H1019.2L1018.39 70.2834C1018.16 73.378 1014.65 75.0435 1012.11 73.2626L1004.61 68.0072C1004.1 67.6504 1003.54 67.3758 1002.94 67.1933C998.62 65.8657 999.577 59.4871 1004.1 59.4871Z" fill="#162A51" stroke="white" stroke-width="2"/>
<path d="M46.8039 52.3682C47.6026 51.427 49.0549 51.427 49.8536 52.3682L52.6036 55.6086C53.1172 56.2137 53.8298 56.6157 54.6133 56.7421C56.1063 56.983 56.1063 59.131 54.6133 59.3719C53.8298 59.4983 53.1172 59.9002 52.6036 60.5053L49.8536 63.7457C49.0549 64.6869 47.6026 64.6869 46.8039 63.7457L44.0539 60.5053C43.5403 59.9002 42.8277 59.4983 42.0442 59.3719C40.5512 59.131 40.5512 56.983 42.0442 56.7421C42.8277 56.6157 43.5403 56.2137 44.0539 55.6086L46.8039 52.3682Z" fill="#162A51" stroke="white" stroke-width="2"/>
<path d="M1057.87 171.923C1058.67 170.981 1060.12 170.981 1060.92 171.923L1063.67 175.163C1064.19 175.768 1064.9 176.17 1065.68 176.297C1067.17 176.537 1067.17 178.685 1065.68 178.926C1064.9 179.053 1064.19 179.455 1063.67 180.06L1060.92 183.3C1060.12 184.241 1058.67 184.241 1057.87 183.3L1055.12 180.06C1054.61 179.455 1053.9 179.053 1053.11 178.926C1051.62 178.685 1051.62 176.537 1053.11 176.297C1053.9 176.17 1054.61 175.768 1055.12 175.163L1057.87 171.923Z" fill="#162A51" stroke="white" stroke-width="2"/>
<path d="M668.154 114.276C668.481 119.421 665.634 127.341 654.178 126.071C648.32 124.513 648.408 121.185 647.028 119.208C644.513 115.654 638.543 117.139 634.187 115.966C630.413 114.95 628.307 110.81 629.207 107.951C630.552 103.674 637.211 100.504 643.078 99.5257C664.656 95.9263 666.356 99.0376 668.154 114.276Z" fill="#F5F5F5"/>
<path d="M642.172 97.1303C646.751 97.529 651.187 93.431 652.08 87.9769C652.974 82.5228 649.986 77.7783 645.406 77.3796C640.827 76.9809 636.391 81.0791 635.498 86.5332C634.604 91.9872 637.593 96.7317 642.172 97.1303Z" fill="#F5F5F5"/>
<path d="M658.982 93.0987C663.367 94.1396 668.816 90.7502 671.151 85.528C673.487 80.3059 671.825 75.2288 667.44 74.1879C663.055 73.147 657.607 76.5365 655.271 81.7587C652.935 86.9807 654.597 92.058 658.982 93.0987Z" fill="#F5F5F5"/>
<path d="M671.988 98.1966C675.398 100.461 682.274 99.0046 687.347 94.9439C692.42 90.8831 693.768 85.7556 690.359 83.4914C686.949 81.2271 680.073 82.6835 675 86.7442C669.927 90.8049 668.579 95.9325 671.988 98.1966Z" fill="#F5F5F5"/>
<path d="M672.448 113.024C675.393 115.632 682.394 114.807 688.085 111.181C693.776 107.555 696.003 102.502 693.058 99.8938C690.113 97.2858 683.112 98.1107 677.421 101.736C671.73 105.362 669.503 110.415 672.448 113.024Z" fill="#F5F5F5"/>
<path d="M577.653 52.3682C578.452 51.427 579.904 51.427 580.703 52.3682L583.453 55.6086C583.967 56.2137 584.679 56.6157 585.463 56.7421C586.956 56.983 586.956 59.131 585.463 59.3719C584.679 59.4983 583.967 59.9002 583.453 60.5053L580.703 63.7457C579.904 64.6869 578.452 64.6869 577.653 63.7457L574.903 60.5053C574.39 59.9002 573.677 59.4983 572.894 59.3719C571.401 59.131 571.401 56.983 572.894 56.7421C573.677 56.6157 574.39 56.2137 574.903 55.6086L577.653 52.3682Z" fill="#162A51" stroke="white" stroke-width="2"/>
</g>
<defs>
<clipPath id="clip0_267_515">
<rect width="1232" height="332" rx="6" fill="white"/>
</clipPath>
</defs>
</svg>
