<svg width="967" height="774" viewBox="0 0 967 774" fill="none" xmlns="http://www.w3.org/2000/svg">
<path d="M0 591.752H967V591.368H0V591.752Z" fill="#ECECEC"/>
<path d="M636.05 604.028H700.108V603.642H636.05V604.028Z" fill="#ECECEC"/>
<path d="M773.172 604.221H852.737V603.835H773.172V604.221Z" fill="#ECECEC"/>
<path d="M689.978 614.316H727.097V613.932H689.978V614.316Z" fill="#ECECEC"/>
<path d="M336.516 611.397H436.44V611.011H336.516V611.397Z" fill="#ECECEC"/>
<path d="M252.789 611.397H319.298V611.011H252.789V611.397Z" fill="#ECECEC"/>
<path d="M122.399 604.873H212.984V604.487H122.399V604.873Z" fill="#ECECEC"/>
<mask id="mask0_155_740" style="mask-type:luminance" maskUnits="userSpaceOnUse" x="0" y="0" width="967" height="774">
<path d="M0 0.464783H967V773.091H0V0.464783Z" fill="white"/>
</mask>
<g mask="url(#mask0_155_740)">
<path d="M84.9317 85.7668C79.1103 85.7668 74.3759 89.5496 74.3759 94.2008V513.63C74.3759 518.281 79.1103 522.064 84.9317 522.064H458.385C464.203 522.064 468.939 518.281 468.939 513.63V94.2008C468.939 89.5496 464.203 85.7668 458.385 85.7668H84.9317ZM458.385 522.45H84.9317C78.8454 522.45 73.8924 518.495 73.8924 513.63V94.2008C73.8924 89.3379 78.8454 85.3805 84.9317 85.3805H458.385C464.469 85.3805 469.422 89.3379 469.422 94.2008V513.63C469.422 518.495 464.469 522.45 458.385 522.45Z" fill="#ECECEC"/>
<path d="M503.25 85.7668C497.43 85.7668 492.696 89.5496 492.696 94.2008V513.63C492.696 518.281 497.43 522.064 503.25 522.064H876.703C882.523 522.064 887.259 518.281 887.259 513.63V94.2008C887.259 89.5496 882.523 85.7668 876.703 85.7668H503.25ZM876.703 522.45H503.25C497.165 522.45 492.213 518.495 492.213 513.63V94.2008C492.213 89.3379 497.165 85.3805 503.25 85.3805H876.703C882.79 85.3805 887.743 89.3379 887.743 94.2008V513.63C887.743 518.495 882.79 522.45 876.703 522.45Z" fill="#ECECEC"/>
<path d="M730.598 343.173C730.598 353.63 721.504 357.747 710.289 357.747C699.07 357.747 689.978 353.63 689.978 343.173C689.978 332.717 699.07 324.239 710.289 324.239C721.504 324.239 730.598 332.717 730.598 343.173Z" fill="#D9D9D9"/>
<path d="M690.026 321.273C690.026 321.273 689.106 330.657 695.25 335.412L707.08 328.696C704.514 324.215 690.026 321.273 690.026 321.273Z" fill="#D9D9D9"/>
<path d="M735.587 322.541C735.587 322.541 722.206 322.741 716.094 328.097L726.807 336.839C732.893 334.354 735.587 322.541 735.587 322.541Z" fill="#D9D9D9"/>
<path d="M696.594 350.378C695.786 364.8 699.224 406.351 703.897 412.275C698.257 410.986 694.873 414.335 697.37 417.747H783.03C783.03 417.747 793.345 373.9 740.573 370.295C730.582 361.71 726.192 347.201 726.192 347.201L696.594 350.378Z" fill="#D9D9D9"/>
<path d="M778.537 406.61C780.452 407.598 783.353 407.867 786.186 407.459C789.041 407.083 791.895 406.193 794.452 404.914C799.589 402.372 803.577 398.368 805.29 393.792C807.048 389.198 806.311 384.167 804.122 379.564C802.96 377.269 801.598 375.011 799.856 372.899C799.067 371.811 798.053 370.816 797.169 369.77C796.198 368.668 795.117 367.562 794.172 366.403C792.245 364.091 790.561 361.608 789.18 358.961C787.863 356.291 786.923 353.398 786.807 350.332C786.693 347.29 787.478 344.001 789.646 341.211C791.756 338.425 794.934 336.145 798.513 334.802C805.723 332.053 813.72 332.172 820.861 333.627C824.46 334.357 827.933 335.433 831.179 336.821C834.414 338.221 837.46 339.869 840.325 341.7C842.636 343.178 843.011 345.873 841.162 347.719C839.313 349.566 835.94 349.866 833.627 348.388C833.48 348.294 833.339 348.194 833.207 348.09L833.182 348.068C828.96 344.728 823.895 342.039 818.349 340.551C812.848 339.064 806.752 338.836 801.757 340.452C799.266 341.246 797.192 342.569 795.765 344.256C794.311 345.938 793.651 348.056 793.611 350.286C793.578 352.522 794.17 354.868 795.168 357.156C796.227 359.435 797.589 361.681 799.233 363.836C800.045 364.924 800.954 365.942 801.846 367.033C802.793 368.194 803.847 369.283 804.7 370.501C806.551 372.85 808.036 375.407 809.286 378.042C811.696 383.331 812.4 389.388 810.247 394.988C808.164 400.592 803.356 405.407 797.239 408.457C794.203 410.021 790.822 411.2 787.141 411.761C785.3 412.025 783.391 412.178 781.409 412C779.442 411.849 777.392 411.439 775.491 410.555C774.106 409.913 773.636 408.492 774.441 407.386C775.247 406.28 777.023 405.904 778.409 406.547C778.444 406.564 778.481 406.581 778.514 406.599L778.537 406.61Z" fill="#D9D9D9"/>
<path d="M437.192 217.659C442.994 199.459 439.984 189.302 439.984 189.302C439.984 189.302 435.681 185.037 438.157 180.916C438.157 180.916 445.572 183.921 448.581 185.894C450.73 183.921 467.921 185.037 473.294 186.411C470.928 183.75 472.756 180.058 472.756 180.058C472.756 180.058 480.063 182.484 484.252 189.297C488.443 196.112 487.64 211.394 487.64 211.394C487.64 211.394 551.835 195.424 557.1 248.735H441.06C441.06 248.735 432.51 232.348 437.192 217.659Z" fill="#D9D9D9"/>
<path d="M152.262 476.246C156.089 474.717 164.887 473.383 172.511 467.258C173.203 459.654 185.836 450.503 206.605 451.495C227.833 452.508 237.41 495.882 219.675 482.93C223.83 493.623 225.065 517.971 261.984 540.821C288.499 557.232 288.636 589.034 267.869 589.034H166.8C157.571 589.034 166.8 575.206 177.414 576.312C187.107 570.782 185.26 536.857 185.26 536.857C185.26 536.857 170.747 502.795 180.471 491.18C169.223 495.743 143.609 491.642 152.262 476.246Z" fill="#D9D9D9"/>
<path d="M306.62 535.949C313.981 553.379 304.518 574.799 276.133 570.179L278.235 574.799C309.775 589.499 339.738 556.803 306.62 535.949Z" fill="#D9D9D9"/>
<path d="M344.443 420.259H102.502V591.368H344.443V420.259ZM340.703 588.378H106.244V423.246H340.703V588.378Z" fill="#162A51"/>
<path d="M115.982 591.371H112.242V420.262H115.982V591.371Z" fill="#162A51"/>
<path d="M159.723 591.371H155.983V420.262H159.723V591.371Z" fill="#162A51"/>
<path d="M203.467 591.371H199.726V420.262H203.467V591.371Z" fill="#162A51"/>
<path d="M247.208 591.371H243.468V420.262H247.208V591.371Z" fill="#162A51"/>
<path d="M290.951 591.371H287.211V420.262H290.951V591.371Z" fill="#162A51"/>
<path d="M334.694 591.371H330.954V420.262H334.694V591.371Z" fill="#162A51"/>
<path fill-rule="evenodd" clip-rule="evenodd" d="M139.894 533.889H103.707V505.816H139.894V533.889Z" fill="#162A51"/>
<path d="M604.47 420.259H362.528V591.368H604.47V420.259ZM600.73 588.378H366.271V423.246H600.73V588.378Z" fill="#162A51"/>
<path d="M376.008 591.371H372.268V420.262H376.008V591.371Z" fill="#162A51"/>
<path d="M419.752 591.371H416.011V420.262H419.752V591.371Z" fill="#162A51"/>
<path d="M463.493 591.371H459.753V420.262H463.493V591.371Z" fill="#162A51"/>
<path d="M507.236 591.371H503.496V420.262H507.236V591.371Z" fill="#162A51"/>
<path d="M550.979 591.371H547.239V420.262H550.979V591.371Z" fill="#162A51"/>
<path d="M594.722 591.371H590.982V420.262H594.722V591.371Z" fill="#162A51"/>
<path fill-rule="evenodd" clip-rule="evenodd" d="M399.922 533.889H363.735V505.816H399.922V533.889Z" fill="#162A51"/>
<path d="M864.498 420.259H622.557V591.368H864.498V420.259ZM860.758 588.378H626.299V423.246H860.758V588.378Z" fill="#162A51"/>
<path d="M636.036 591.371H632.296V420.262H636.036V591.371Z" fill="#162A51"/>
<path d="M679.778 591.371H676.038V420.262H679.778V591.371Z" fill="#162A51"/>
<path d="M723.521 591.371H719.781V420.262H723.521V591.371Z" fill="#162A51"/>
<path d="M767.264 591.371H763.524V420.262H767.264V591.371Z" fill="#162A51"/>
<path d="M811.007 591.371H807.267V420.262H811.007V591.371Z" fill="#162A51"/>
<path d="M854.751 591.371H851.01V420.262H854.751V591.371Z" fill="#162A51"/>
<path fill-rule="evenodd" clip-rule="evenodd" d="M659.951 533.889H623.763V505.816H659.951V533.889Z" fill="#162A51"/>
<path d="M344.443 249.147H102.502V420.256H344.443V249.147ZM340.703 417.266H106.244V252.135H340.703V417.266Z" fill="#162A51"/>
<path d="M115.982 420.259H112.242V249.15H115.982V420.259Z" fill="#162A51"/>
<path d="M159.723 420.259H155.983V249.15H159.723V420.259Z" fill="#162A51"/>
<path d="M203.467 420.259H199.726V249.15H203.467V420.259Z" fill="#162A51"/>
<path d="M247.208 420.259H243.468V249.15H247.208V420.259Z" fill="#162A51"/>
<path d="M290.951 420.259H287.211V249.15H290.951V420.259Z" fill="#162A51"/>
<path d="M334.694 420.259H330.954V249.15H334.694V420.259Z" fill="#162A51"/>
<path fill-rule="evenodd" clip-rule="evenodd" d="M139.894 362.775H103.707V334.703H139.894V362.775Z" fill="#162A51"/>
<path d="M604.47 249.147H362.528V420.256H604.47V249.147ZM600.73 417.266H366.271V252.135H600.73V417.266Z" fill="#162A51"/>
<path d="M376.008 420.259H372.268V249.15H376.008V420.259Z" fill="#162A51"/>
<path d="M419.752 420.259H416.011V249.15H419.752V420.259Z" fill="#162A51"/>
<path d="M463.493 420.259H459.753V249.15H463.493V420.259Z" fill="#162A51"/>
<path d="M507.236 420.259H503.496V249.15H507.236V420.259Z" fill="#162A51"/>
<path d="M550.979 420.259H547.239V249.15H550.979V420.259Z" fill="#162A51"/>
<path d="M594.722 420.259H590.982V249.15H594.722V420.259Z" fill="#162A51"/>
<path fill-rule="evenodd" clip-rule="evenodd" d="M399.922 362.775H363.735V334.703H399.922V362.775Z" fill="#162A51"/>
<path d="M864.498 249.147H622.557V420.256H864.498V249.147ZM860.758 417.266H626.299V252.135H860.758V417.266Z" fill="#162A51"/>
<path d="M636.036 420.259H632.296V249.15H636.036V420.259Z" fill="#162A51"/>
<path d="M679.778 420.259H676.038V249.15H679.778V420.259Z" fill="#162A51"/>
<path d="M723.521 420.259H719.781V249.15H723.521V420.259Z" fill="#162A51"/>
<path d="M767.264 420.259H763.524V249.15H767.264V420.259Z" fill="#162A51"/>
<path d="M811.007 420.259H807.267V249.15H811.007V420.259Z" fill="#162A51"/>
<path d="M854.751 420.259H851.01V249.15H854.751V420.259Z" fill="#162A51"/>
<path fill-rule="evenodd" clip-rule="evenodd" d="M659.951 362.775H623.763V334.703H659.951V362.775Z" fill="#162A51"/>
<path d="M344.443 129.407H102.502V249.187H344.443V129.407ZM340.703 246.198H106.244V132.395H340.703V246.198Z" fill="#162A51"/>
<path d="M115.982 249.19H112.242V129.41H115.982V249.19Z" fill="#162A51"/>
<path d="M159.723 249.19H155.983V129.41H159.723V249.19Z" fill="#162A51"/>
<path d="M203.467 249.19H199.726V129.41H203.467V249.19Z" fill="#162A51"/>
<path d="M247.208 249.19H243.468V129.41H247.208V249.19Z" fill="#162A51"/>
<path d="M290.951 249.19H287.211V129.41H290.951V249.19Z" fill="#162A51"/>
<path d="M334.694 249.19H330.954V129.41H334.694V249.19Z" fill="#162A51"/>
<path fill-rule="evenodd" clip-rule="evenodd" d="M139.894 191.708H103.707V163.636H139.894V191.708Z" fill="#162A51"/>
<path d="M604.47 129.407H362.528V249.187H604.47V129.407ZM600.73 246.198H366.271V132.395H600.73V246.198Z" fill="#162A51"/>
<path d="M376.008 249.19H372.268V129.41H376.008V249.19Z" fill="#162A51"/>
<path d="M419.752 249.19H416.011V129.41H419.752V249.19Z" fill="#162A51"/>
<path d="M463.493 249.19H459.753V129.41H463.493V249.19Z" fill="#162A51"/>
<path d="M507.236 249.19H503.496V129.41H507.236V249.19Z" fill="#162A51"/>
<path d="M550.979 249.19H547.239V129.41H550.979V249.19Z" fill="#162A51"/>
<path d="M594.722 249.19H590.982V129.41H594.722V249.19Z" fill="#162A51"/>
<path fill-rule="evenodd" clip-rule="evenodd" d="M399.922 191.708H363.735V163.636H399.922V191.708Z" fill="#162A51"/>
<path d="M864.498 129.407H622.557V249.187H864.498V129.407ZM860.758 246.198H626.299V132.395H860.758V246.198Z" fill="#162A51"/>
<path d="M636.036 249.19H632.296V129.41H636.036V249.19Z" fill="#162A51"/>
<path d="M679.778 249.19H676.038V129.41H679.778V249.19Z" fill="#162A51"/>
<path d="M723.521 249.19H719.781V129.41H723.521V249.19Z" fill="#162A51"/>
<path d="M767.264 249.19H763.524V129.41H767.264V249.19Z" fill="#162A51"/>
<path d="M811.007 249.19H807.267V129.41H811.007V249.19Z" fill="#162A51"/>
<path d="M854.751 249.19H851.01V129.41H854.751V249.19Z" fill="#162A51"/>
<path fill-rule="evenodd" clip-rule="evenodd" d="M659.951 191.708H623.763V163.636H659.951V191.708Z" fill="#162A51"/>
</g>
<mask id="mask1_155_740" style="mask-type:luminance" maskUnits="userSpaceOnUse" x="0" y="0" width="967" height="774">
<path d="M0 0.464783H967V773.091H0V0.464783Z" fill="white"/>
</mask>
<g mask="url(#mask1_155_740)">
<path d="M324.1 178.987C323.916 178.905 323.798 178.854 323.738 178.826C323.806 178.855 323.935 178.912 324.1 178.987ZM323.721 178.818C323.667 178.793 323.668 178.795 323.721 178.818V178.818ZM324.456 179.144C324.371 179.107 324.283 179.069 324.214 179.038C324.289 179.07 324.371 179.107 324.456 179.144ZM327.579 180.529C327.535 180.51 327.455 180.475 327.324 180.416C327.442 180.469 327.529 180.509 327.579 180.529ZM134.951 260.489C123.592 416.211 369.804 514.489 527.034 549.187C600.722 565.45 689.576 576.653 756.716 539.92C830.823 499.381 860.705 417.604 817.386 354C759.225 268.608 683.093 310.906 590.762 312.595C485.703 314.516 511.437 245.536 480.746 187.496C405.061 44.3704 144.812 125.284 134.951 260.489Z" fill="#007CFF"/>
<mask id="mask2_155_740" style="mask-type:luminance" maskUnits="userSpaceOnUse" x="134" y="112" width="704" height="453">
<path d="M134.571 112.04H837.438V564.434H134.571V112.04Z" fill="white"/>
</mask>
<g mask="url(#mask2_155_740)">
<g opacity="0.899994">
<path d="M324.1 178.987C323.916 178.905 323.798 178.854 323.738 178.826C323.806 178.855 323.935 178.912 324.1 178.987ZM323.721 178.818C323.667 178.793 323.668 178.795 323.721 178.818V178.818ZM324.456 179.144C324.371 179.107 324.283 179.069 324.214 179.038C324.289 179.07 324.371 179.107 324.456 179.144ZM327.579 180.529C327.535 180.51 327.455 180.475 327.324 180.416C327.442 180.469 327.529 180.509 327.579 180.529ZM134.951 260.489C123.592 416.211 369.804 514.489 527.034 549.187C600.722 565.45 689.576 576.653 756.716 539.92C830.823 499.381 860.705 417.604 817.386 354C759.225 268.608 683.093 310.906 590.762 312.595C485.703 314.516 511.437 245.536 480.746 187.496C405.061 44.3704 144.812 125.284 134.951 260.489Z" fill="white"/>
</g>
</g>
</g>
<mask id="mask3_155_740" style="mask-type:luminance" maskUnits="userSpaceOnUse" x="0" y="0" width="967" height="774">
<path d="M0 0.464783H967V773.091H0V0.464783Z" fill="white"/>
</mask>
<g mask="url(#mask3_155_740)">
<path d="M858.482 643.657C858.482 653.321 690.597 661.154 483.5 661.154C276.404 661.154 108.519 653.321 108.519 643.657C108.519 633.995 276.404 626.16 483.5 626.16C690.597 626.16 858.482 633.995 858.482 643.657Z" fill="#F5F5F5"/>
</g>
<mask id="mask4_155_740" style="mask-type:luminance" maskUnits="userSpaceOnUse" x="0" y="0" width="967" height="774">
<path d="M0 0.464783H967V773.091H0V0.464783Z" fill="white"/>
</mask>
<g mask="url(#mask4_155_740)">
<path d="M258.096 168.374C239.481 179.01 270.626 201.269 242.881 206.274C215.136 211.281 235.062 250.079 261.733 252.367C288.405 254.656 338.304 260.769 344.733 229.034C350.601 200.079 332.071 200.442 334.351 188.446C337.134 173.808 331.858 164.566 315.077 156.789C291.931 146.062 252.295 144.489 258.096 168.374Z" fill="#1A2E35"/>
<path d="M346.903 636.636C330.454 635.622 321.96 626.632 322.546 617.102C322.869 611.85 301.825 611.38 301.825 611.38C306.126 627.669 302.094 629.993 300.974 634.199C299.852 638.425 300.469 643.058 304.821 643.146C310.035 643.251 312.41 642.455 318.893 642.656C326.47 642.891 331.578 643.127 345.023 643.146C350.397 643.154 354.219 637.087 346.903 636.636Z" fill="#D3DB50"/>
<path d="M343.9 329.87C343.9 329.87 345.536 406.191 335.067 463.687C334.678 512.338 323.976 619.317 323.976 619.317C316.164 620.541 308.788 620.738 302.172 619.158C302.172 619.158 271.276 541.017 281.076 462.859C265.53 380.943 266.091 329.87 266.091 329.87H343.9Z" fill="#1A2E35"/>
<mask id="mask5_155_740" style="mask-type:luminance" maskUnits="userSpaceOnUse" x="267" y="367" width="38" height="114">
<path d="M267.94 367.099H304.238V480.443H267.94V367.099Z" fill="white"/>
</mask>
<g mask="url(#mask5_155_740)">
<g opacity="0.199997">
<path d="M267.941 367.838C269.809 390.751 273.546 423.188 281.065 462.851C280.336 468.722 279.82 474.609 279.52 480.444C312.321 433.331 316.314 358.88 267.941 367.838Z" fill="black"/>
</g>
</g>
<path d="M215.974 635.279C215.943 631.138 214.94 625.201 217.816 614.845C217.816 614.845 199.644 611.697 199.075 616.815C198.042 626.1 191.579 634.721 177.265 636.209C169.096 637.059 172.15 643.154 177.994 643.154C192.615 643.154 187.639 642.961 195.944 642.738C203.046 642.55 204.49 643.247 210.186 643.151C214.944 643.07 216.005 639.439 215.974 635.279Z" fill="#D3DB50"/>
<path d="M315.569 329.87C315.569 329.87 287.756 435.934 269.454 481.23C250.232 528.804 219.395 615.588 219.188 619.158C210.773 620.414 202.851 620.879 196.274 619.158C196.274 619.158 185.561 521.586 210.162 469.927C216.349 362.094 252.808 329.87 252.808 329.87H315.569Z" fill="#1A2E35"/>
<path d="M320.745 231.658C320.58 231.658 320.416 231.596 320.309 231.48C320.087 231.235 319.847 230.988 319.605 230.736C318.012 229.084 316.031 227.029 317.989 224.655C320.275 221.884 324.996 222.829 328.446 223.519C328.954 223.62 329.436 223.717 329.877 223.794C332.362 224.232 335.236 224.542 337.768 223.546C340.908 222.305 342.647 219.698 344.328 217.176C345.419 215.54 346.544 213.848 348.055 212.517C348.467 212.152 348.898 211.796 349.329 211.439C350.983 210.068 352.545 208.771 353.24 207.002C353.329 206.777 353.625 206.65 353.911 206.721C354.193 206.792 354.352 207.033 354.263 207.259C353.495 209.221 351.77 210.652 350.103 212.034C349.679 212.384 349.256 212.735 348.849 213.094C347.43 214.345 346.384 215.915 345.275 217.579C343.515 220.22 341.696 222.952 338.241 224.314C335.418 225.429 332.312 225.102 329.647 224.632C329.194 224.553 328.705 224.454 328.185 224.351C324.878 223.689 320.752 222.863 318.886 225.128C317.35 226.99 318.857 228.554 320.456 230.212C320.704 230.47 320.95 230.725 321.18 230.977C321.354 231.168 321.3 231.437 321.062 231.576C320.967 231.632 320.857 231.658 320.745 231.658Z" fill="white"/>
<path d="M366.393 220.114L362.573 214.582C361.183 212.568 359.158 210.881 356.698 209.686L352.064 207.435C348.993 205.944 345.03 206.417 342.635 208.558L339.027 211.791C336.259 214.268 336.563 218.073 339.698 220.25L343.171 222.66C343.171 222.66 351.793 230.291 361.861 231.793L363.631 229.983C366.511 227.04 367.526 223.41 366.393 220.114Z" fill="#FFC4BE"/>
<path d="M340.261 240.41L342.069 242.235C342.771 242.935 343.504 243.644 344.257 244.339C345.773 245.725 347.309 247.115 348.927 248.413C352.124 251.04 355.517 253.432 358.965 255.453C362.44 257.457 365.962 259.106 369.497 260.226C371.269 260.775 373.021 261.198 374.787 261.535C375.667 261.685 376.553 261.821 377.44 261.895L377.773 261.934L377.941 261.954C377.918 261.957 378.108 261.964 377.91 261.961L377.469 261.968C377.175 261.977 376.881 261.998 376.589 262.031L375.601 262.17C374.795 262.298 374.156 262.485 373.292 262.765C372.441 263.04 371.667 263.44 370.925 263.848C370.194 264.256 369.488 264.823 369.002 265.243C368.484 265.692 368.002 266.279 367.734 266.619C367.434 266.993 367.146 267.527 367.014 267.759C366.861 268.03 366.718 268.427 366.651 268.615C366.577 268.81 366.523 269.011 366.486 269.21C366.422 269.439 366.42 269.743 366.422 269.791C366.448 270.049 366.48 269.926 366.527 269.81C366.6 269.482 366.577 268.777 366.484 268.016C366.283 266.447 365.846 264.57 365.297 262.66C364.25 258.795 362.796 254.728 361.315 250.641L351.796 225.733L351.763 225.648C350.442 222.193 352.877 218.537 357.203 217.48C360.684 216.631 364.334 217.736 366.312 219.997C372.868 227.516 378.597 235.218 383.846 243.411C386.466 247.513 388.911 251.71 391.141 256.275C392.224 258.577 393.251 260.962 394.127 263.721C394.554 265.126 394.955 266.606 395.191 268.482C395.297 269.467 395.378 270.448 395.264 271.806C395.127 273.126 394.976 274.673 393.769 277.051C393.531 277.547 393.036 278.307 392.574 278.924C392.154 279.514 391.425 280.297 390.69 280.96C390.002 281.609 388.994 282.322 388 282.907C387.006 283.51 385.88 283.98 384.733 284.394C383.565 284.808 382.571 285.018 381.438 285.228C380.848 285.335 380.394 285.386 379.939 285.426C379.475 285.469 379.009 285.502 378.543 285.52L377.554 285.543L377.204 285.547L376.504 285.55C374.628 285.577 372.766 285.508 370.905 285.386C367.204 285.119 363.541 284.605 360.054 283.799C353.07 282.206 346.668 279.795 340.988 276.875C335.246 273.996 330.208 270.618 325.59 267.017C323.308 265.192 321.111 263.326 319.059 261.346C318.032 260.354 317.018 259.355 316.036 258.305L314.576 256.689L313.839 255.836L312.965 254.785C307.977 248.79 310.015 240.702 317.517 236.717C324.623 232.943 334.076 234.202 339.294 239.435L340.261 240.41Z" fill="#FFC4BE"/>
<path d="M347.621 255.558C347.281 261.764 359.546 276.115 344.409 284.435C347.24 289.486 349.627 323.744 343.9 329.87C335.544 334.776 290.317 333.822 252.809 329.87C251.225 317.483 259.758 291.824 249.303 251.816C246.879 242.54 255.045 233.631 266.844 232.681C269.998 232.428 273.338 232.216 276.758 232.085C290.052 231.573 300.944 231.233 312.632 232.086C316.503 232.367 320.507 232.76 324.332 233.188C338.129 234.735 348.229 244.436 347.621 255.558Z" fill="#D3DB50"/>
<path d="M275.656 199.81C278.515 209.032 281.305 224.076 276.757 232.084C276.757 232.084 292.014 232.685 313.789 246.578C324.043 234.547 313.955 232.186 313.955 232.186C304.906 230.489 303.473 221.692 303.485 214.833L275.656 199.81Z" fill="#FFC4BE"/>
<mask id="mask6_155_740" style="mask-type:luminance" maskUnits="userSpaceOnUse" x="287" y="206" width="18" height="17">
<path d="M287.601 206.286H304.392V222.865H287.601V206.286Z" fill="white"/>
</mask>
<g mask="url(#mask6_155_740)">
<g opacity="0.199997">
<path d="M303.491 214.833L287.661 206.286C287.402 207.866 288.003 210.063 289.077 211.899C292.235 217.202 298.809 221.013 304.392 222.865C303.684 220.24 303.491 217.408 303.491 214.833Z" fill="black"/>
</g>
</g>
<path d="M268.137 182.894C272.641 197.893 274.153 204.316 285.276 210.768C302.007 220.472 323.623 212.814 324.708 197.054C325.685 182.867 318.156 160.723 298.605 157.268C279.342 153.864 263.633 167.896 268.137 182.894Z" fill="#FFC4BE"/>
<path d="M296.267 189.156C296.541 190.391 297.582 191.275 298.591 191.132C299.601 190.989 300.196 189.873 299.924 188.638C299.651 187.404 298.609 186.52 297.599 186.662C296.59 186.806 295.992 187.921 296.267 189.156Z" fill="#1A2E35"/>
<path d="M315.314 186.685C315.588 187.919 316.629 188.803 317.638 188.661C318.648 188.517 319.245 187.402 318.971 186.167C318.698 184.932 317.656 184.048 316.646 184.191C315.637 184.334 315.041 185.45 315.314 186.685Z" fill="#1A2E35"/>
<path d="M316.216 184.322L319.736 182.943C319.736 182.943 318.348 185.528 316.216 184.322Z" fill="#1A2E35"/>
<path d="M310.7 187.69C310.7 187.69 314.498 192.633 317.952 194.789C316.252 196.598 312.63 196.394 312.63 196.394L310.7 187.69Z" fill="#FF857F"/>
<path d="M304.757 202.213C305.583 202.213 306.459 202.156 307.387 202.024C307.637 201.989 307.805 201.799 307.761 201.598C307.716 201.399 307.484 201.264 307.225 201.3C300.452 202.262 296.441 198.923 296.4 198.889C296.226 198.741 295.934 198.733 295.751 198.872C295.565 199.011 295.553 199.245 295.727 199.391C295.882 199.523 299.11 202.213 304.757 202.213Z" fill="#1A2E35"/>
<path d="M266.763 196.865C268.495 199.809 271.518 201.654 274.369 202.284C278.653 203.233 280.771 199.477 279.558 195.671C278.465 192.243 274.92 187.62 270.631 188.372C266.401 189.114 264.784 193.5 266.763 196.865Z" fill="#FFC4BE"/>
<path d="M290.864 181.427C291.098 181.37 291.301 181.238 291.419 181.051C293.245 178.109 296.606 177.762 296.647 177.758C297.144 177.707 297.513 177.346 297.453 176.939C297.393 176.536 296.937 176.249 296.43 176.295C296.254 176.312 292.034 176.745 289.767 180.396C289.541 180.761 289.729 181.203 290.183 181.384C290.404 181.47 290.645 181.481 290.864 181.427Z" fill="#1A2E35"/>
<path d="M322.348 177.429C322.574 177.4 322.787 177.305 322.936 177.148C323.243 176.823 323.164 176.363 322.76 176.115C318.704 173.652 314.682 174.757 314.511 174.807C314.032 174.944 313.782 175.364 313.953 175.748C314.125 176.129 314.651 176.329 315.128 176.194C315.285 176.149 318.42 175.329 321.646 177.288C321.855 177.415 322.108 177.46 322.348 177.429Z" fill="#1A2E35"/>
<path d="M297.168 186.794L300.69 185.414C300.69 185.414 299.3 187.999 297.168 186.794Z" fill="#1A2E35"/>
<path d="M322.026 348.335C322.026 348.335 332.799 321.074 306.146 314.4C289.873 310.327 284.1 315.511 284.1 315.511L288.034 341.47C298.946 351.678 318.187 356.704 332.087 358.485C342.14 359.773 322.026 348.335 322.026 348.335Z" fill="#E1E1E1"/>
<path d="M292.741 276.404C291.759 286.21 317.065 290.657 325.258 289.402C325.258 289.402 334.04 297.413 340.217 294.627C342.905 293.414 335.529 289.595 332.191 285.61C328.853 281.624 315.795 279.842 313.042 274.933C308.165 266.237 293.882 265.018 292.741 276.404Z" fill="white"/>
<path d="M274.096 278.358C263.301 304.936 256.124 332.636 268.145 343.18C280.169 353.723 294.243 363.613 309.079 365.125C319.808 366.219 298.285 351.184 298.285 351.184C298.285 351.184 338.843 337.479 308.052 318.383C315.677 309.598 309.784 286.345 312.13 277.159C314.476 267.971 284.153 253.6 274.096 278.358Z" fill="white"/>
<path d="M303.041 245.592C302.196 243.175 310.692 242.429 315.78 238.08C318.803 242.253 311.381 251.478 311.381 251.478C311.381 251.478 304.565 249.948 303.041 245.592Z" fill="#1A2E35"/>
<path d="M282.097 267.88C281.845 263.12 276.566 258.112 280.304 250.556C284.044 243 294.175 239.441 302.156 240.422C312.157 241.652 317.692 247.745 318.352 254.422C319.011 261.099 307.374 267.46 308.894 273.838C310.416 280.219 282.097 267.88 282.097 267.88Z" fill="white"/>
<path d="M304.747 240.878C302.163 243.07 310.844 246.739 315.119 246.802C312.823 244.061 309.34 241.91 304.747 240.878Z" fill="#E1E1E1"/>
<path d="M269.106 404.929C269.029 404.929 268.952 404.929 268.874 404.928C263.782 404.852 259.405 402.237 256.864 397.755C256.263 396.695 256.853 395.444 258.181 394.964C259.52 394.483 261.073 394.955 261.674 396.015C263.364 398.999 265.956 400.666 268.973 400.711C272.292 400.76 275.612 398.85 277.49 395.846C281.138 390.002 278.742 381.842 271.079 374.016C257.123 359.766 257.164 349.331 259.659 343.087C262.003 337.216 267.172 333.566 270.988 332.661C272.367 332.33 273.852 332.962 274.27 334.079C274.684 335.197 273.891 336.369 272.493 336.702C270.466 337.184 266.553 339.692 264.685 344.369C262.581 349.643 262.701 358.618 275.235 371.417C284.186 380.557 286.795 390.393 282.213 397.728C279.428 402.185 274.425 404.929 269.106 404.929Z" fill="white"/>
<path d="M269.085 404.935C264.025 404.935 259.459 402.333 256.864 397.754C256.264 396.694 256.852 395.444 258.181 394.964C259.521 394.483 261.072 394.954 261.674 396.016C263.786 399.748 267.367 401.403 271.233 400.446C272.645 400.1 274.105 400.726 274.537 401.837C274.968 402.951 274.187 404.132 272.794 404.475C271.543 404.785 270.299 404.935 269.085 404.935Z" fill="#E1E1E1"/>
<mask id="mask7_155_740" style="mask-type:luminance" maskUnits="userSpaceOnUse" x="251" y="250" width="22" height="36">
<path d="M251.124 250.292H272.344V285.293H251.124V250.292Z" fill="white"/>
</mask>
<g mask="url(#mask7_155_740)">
<g opacity="0.199997">
<path d="M251.124 259.574C253.135 269.017 254.091 277.597 254.443 285.294C263.068 275.728 272.877 258.388 272.322 250.291L251.124 259.574Z" fill="black"/>
</g>
</g>
<path d="M304.502 285.699L312.294 277.344L326.612 290.047C326.612 290.047 317.081 296.903 307.092 297.591L305.657 295.664C303.318 292.53 302.895 288.865 304.502 285.699Z" fill="#FFC4BE"/>
<path d="M326.639 276.746L330.875 281.656C332.807 283.895 332.118 286.957 329.335 288.52L326.612 290.046L312.295 277.344L319.085 275.008C321.801 274.075 324.963 274.803 326.639 276.746Z" fill="#FFC4BE"/>
<path d="M278.88 252.916L277.637 255.835L276.349 258.969C275.525 261.077 274.674 263.184 273.923 265.304C272.359 269.534 271.063 273.779 269.955 277.94C268.92 282.097 268.154 286.199 267.901 289.99C267.684 293.756 268.03 297.231 268.885 299.489L265.81 295.812C264.555 294.837 263.089 294.443 262.536 294.374C261.909 294.29 261.859 294.408 262.122 294.487C262.683 294.661 264.261 294.667 265.948 294.5C269.415 294.15 273.641 293.369 277.822 292.349C282.058 291.371 286.388 290.186 290.757 288.958L303.896 285.178L304.169 285.099C308.441 283.871 313.155 285.642 314.694 289.057C315.854 291.634 314.87 294.412 312.483 296.148C308.6 298.968 304.711 301.38 300.572 303.77C296.445 306.133 292.142 308.34 287.55 310.403C282.903 312.402 278.101 314.358 272.214 315.796C269.224 316.494 266.027 317.151 261.774 317.29C259.637 317.342 257.177 317.25 254.241 316.624C251.375 316.04 247.747 314.678 244.778 312.356C243.563 311.407 242.625 310.318 241.964 309.151L241.703 308.678C237.974 302.043 236.974 295.803 236.705 290.022C236.597 287.13 236.678 284.314 236.901 281.564C237.173 278.824 237.57 276.14 238.055 273.497C239.034 268.223 240.484 263.129 242.19 258.142C243.07 255.653 243.973 253.179 245.022 250.736C245.538 249.514 246.064 248.29 246.633 247.067C247.226 245.811 247.76 244.709 248.509 243.249C251.934 236.577 261.478 233.387 269.827 236.124C277.851 238.752 281.853 245.899 279.112 252.372L278.88 252.916Z" fill="#FFC4BE"/>
<path d="M280.395 273.092C273.469 281.226 290.347 295.475 296.936 299.565C296.936 299.565 295.196 310.124 301.891 311.994C304.806 312.808 303.53 305.861 305.077 301.226C306.622 296.592 300.447 286.265 300.574 280.886C300.803 271.36 288.435 263.647 280.395 273.092Z" fill="#1A2E35"/>
<path d="M289.065 245.109C289.91 242.692 281.414 241.946 276.326 237.597C273.303 241.769 280.726 250.996 280.726 250.996C280.726 250.996 287.541 249.465 289.065 245.109Z" fill="#1A2E35"/>
<mask id="mask8_155_740" style="mask-type:luminance" maskUnits="userSpaceOnUse" x="277" y="240" width="12" height="12">
<path d="M277.129 240.853H288.435V251.111H277.129V240.853Z" fill="white"/>
</mask>
<g mask="url(#mask8_155_740)">
<g opacity="0.600006">
<path d="M288.434 247.041C287.479 247.084 283.439 248.403 277.335 240.852C275.906 244.295 282.364 251.111 282.364 251.111C282.364 251.111 287.593 250.867 288.434 247.041Z" fill="white"/>
</g>
</g>
<path d="M304.827 244.486C307.103 243.608 309.913 244.137 310.992 244.735C312.072 245.331 310.236 246.68 309.062 246.642C307.888 246.603 303.158 245.129 304.827 244.486Z" fill="#1A2E35"/>
<path d="M306.315 249.892C304.797 249.892 302.911 249.467 300.823 248.623C300.658 248.558 300.593 248.399 300.676 248.269C300.755 248.139 300.956 248.087 301.119 248.153C305.279 249.831 307.777 249.518 308.735 248.663C309.421 248.05 309.408 247.095 308.698 246.231C308.601 246.109 308.642 245.945 308.795 245.866C308.947 245.787 309.149 245.818 309.253 245.942C310.129 247.011 310.119 248.216 309.226 249.015C308.572 249.601 307.57 249.892 306.315 249.892Z" fill="#1A2E35"/>
<path d="M313.716 250.064C312.215 250.064 309.803 248.673 309.268 248.354C309.123 248.265 309.092 248.1 309.202 247.984C309.314 247.868 309.521 247.844 309.662 247.932C311.076 248.777 313.368 249.812 314.049 249.482C314.314 249.352 314.285 248.944 314.217 248.624C314.184 248.48 314.304 248.344 314.482 248.318C314.673 248.292 314.832 248.391 314.865 248.533C315.018 249.231 314.861 249.703 314.395 249.93C314.203 250.024 313.973 250.064 313.716 250.064Z" fill="#1A2E35"/>
<path d="M299.136 241.88C297.757 241.001 294.386 241.77 294.274 243.022C294.16 244.273 301.583 243.439 299.136 241.88Z" fill="#1A2E35"/>
<path d="M308.851 242.333C310.222 241.886 312.709 243.144 312.429 244.173C312.148 245.203 306.418 243.126 308.851 242.333Z" fill="#1A2E35"/>
<path d="M305.351 246.527C305.427 246.678 305.32 246.802 305.117 246.802C304.912 246.802 304.686 246.68 304.61 246.528C304.537 246.378 304.641 246.254 304.846 246.252C305.05 246.252 305.276 246.375 305.351 246.527Z" fill="#1A2E35"/>
<path d="M302.799 245.811C302.874 245.962 302.768 246.086 302.565 246.086C302.36 246.086 302.133 245.964 302.058 245.812C301.984 245.662 302.089 245.538 302.292 245.536C302.497 245.536 302.723 245.659 302.799 245.811Z" fill="#1A2E35"/>
<path d="M303.834 247.299C303.909 247.451 303.803 247.575 303.598 247.575C303.395 247.575 303.168 247.452 303.093 247.301C303.019 247.15 303.124 247.027 303.327 247.025C303.532 247.025 303.758 247.147 303.834 247.299Z" fill="#1A2E35"/>
<path d="M313.686 246.461C313.761 246.613 313.655 246.737 313.452 246.737C313.247 246.737 313.02 246.615 312.947 246.465C312.871 246.313 312.976 246.189 313.181 246.189C313.384 246.187 313.611 246.31 313.686 246.461Z" fill="#1A2E35"/>
<path d="M312.168 247.234C312.244 247.386 312.138 247.51 311.934 247.51C311.729 247.51 311.503 247.387 311.427 247.236C311.354 247.085 311.458 246.962 311.662 246.962C311.867 246.96 312.093 247.082 312.168 247.234Z" fill="#1A2E35"/>
<path d="M325.063 232.516C325.063 234.808 322.739 236.665 319.87 236.665C317.002 236.665 314.678 234.808 314.678 232.516C314.678 230.224 317.002 228.367 319.87 228.367C322.739 228.367 325.063 230.224 325.063 232.516Z" fill="#1A2E35"/>
<path d="M319.869 229.225C317.599 229.225 315.752 230.701 315.752 232.517C315.752 234.331 317.599 235.806 319.869 235.806C322.14 235.806 323.987 234.331 323.987 232.517C323.987 230.701 322.14 229.225 319.869 229.225ZM319.869 237.523C316.413 237.523 313.601 235.276 313.601 232.517C313.601 229.755 316.413 227.508 319.869 227.508C323.325 227.508 326.137 229.755 326.137 232.517C326.137 235.276 323.325 237.523 319.869 237.523Z" fill="white"/>
<path d="M277.428 193.66C287.601 184.642 281.248 175.978 281.248 175.978C281.248 175.978 315.744 174.4 319.736 169.156C315.735 158.286 301.415 149.704 277.308 157.237C253.203 164.77 264.062 192.993 264.062 192.993L277.428 193.66Z" fill="#1A2E35"/>
</g>
<mask id="mask9_155_740" style="mask-type:luminance" maskUnits="userSpaceOnUse" x="0" y="0" width="967" height="774">
<path d="M0 0.464783H967V773.091H0V0.464783Z" fill="white"/>
</mask>
<g mask="url(#mask9_155_740)">
<path d="M643.605 633.123L636.836 620.29C636.347 619.778 636.403 619.098 636.971 618.655L648.796 609.697C653.223 607.183 659.324 608.11 662.368 611.704C665.697 615.635 667.41 619.755 672.907 623.406C681.679 629.232 678.684 626.896 691.603 629.669C699.416 631.346 698.67 637.973 695.136 637.83C679.049 637.175 664.496 636.838 648.357 634.679C646.603 634.444 644.912 633.991 643.605 633.123Z" fill="#1A2E35"/>
<path d="M609.643 605.967C629.362 600.995 713.814 598.618 703.404 548.768L627.281 544.593C627.281 544.593 521.867 575.472 510.205 614.002C495.263 663.37 643.898 637.438 643.898 637.438C651.385 636.045 656.837 628.276 655.821 619.358C655.821 619.358 648.791 605.677 609.643 605.967Z" fill="#007CFF"/>
<mask id="mask10_155_740" style="mask-type:luminance" maskUnits="userSpaceOnUse" x="509" y="544" width="196" height="101">
<path d="M509.151 544.593H704.289V644.244H509.151V544.593Z" fill="white"/>
</mask>
<g mask="url(#mask10_155_740)">
<g opacity="0.199997">
<path d="M609.644 605.967C629.363 600.995 713.815 598.618 703.404 548.768L627.282 544.593C627.282 544.593 521.868 575.472 510.206 614.002C495.263 663.37 643.899 637.438 643.899 637.438C651.386 636.045 656.838 628.276 655.822 619.358C655.822 619.358 648.792 605.677 609.644 605.967Z" fill="black"/>
</g>
</g>
<path d="M725.942 634.841L718.566 622.224C718.054 621.727 718.077 621.047 718.624 620.586L730.013 611.275C734.317 608.628 740.459 609.369 743.671 612.868C747.185 616.694 749.094 620.759 754.761 624.241C763.804 629.796 760.7 627.551 773.743 629.931C781.628 631.368 781.199 638.012 777.661 637.977C761.553 637.811 746.994 637.918 730.766 636.252C729.002 636.071 727.29 635.67 725.942 634.841Z" fill="#1A2E35"/>
<path d="M696.954 608.628C716.422 603.059 761.29 592.811 736.568 541.831L655.472 548.504C655.472 548.504 584.295 580.433 574.478 619.29C561.899 669.077 726.442 639.144 726.442 639.144C733.857 637.526 738.935 629.595 737.496 620.715C737.496 620.715 736.059 607.146 696.954 608.628Z" fill="#007CFF"/>
<path d="M633.162 447.183C630.139 452.604 626.233 457.467 622.057 461.845C617.849 466.211 613.393 470.146 608.864 473.734C604.369 477.348 599.838 480.66 595.505 483.812C591.222 486.994 587.069 489.987 583.544 492.927L582.275 493.986C580.795 495.219 578.968 496.101 577.074 496.607C569.052 498.72 561.678 499.339 554.611 499.59C547.542 499.842 540.748 499.492 534.089 498.975C527.436 498.397 520.926 497.561 514.508 496.478C508.056 495.364 501.865 494.128 495.419 492.407C490.855 491.187 488.391 487.242 489.917 483.594C491.127 480.698 494.491 478.861 498.111 478.836H498.492C504.404 478.805 510.661 478.825 516.681 478.697C522.743 478.583 528.753 478.403 534.633 478.031C540.504 477.714 546.272 477.146 551.675 476.39C557.067 475.645 562.14 474.474 565.892 473.111L559.423 476.79C563.596 472.426 567.834 468.608 571.986 465.034C576.102 461.437 580.099 458.06 583.83 454.75C587.522 451.416 591.001 448.191 593.993 444.938C597.014 441.702 599.565 438.474 601.671 435.265L601.814 435.047C606.284 428.237 616.816 425.611 625.339 429.183C633.516 432.61 636.849 440.536 633.162 447.183Z" fill="#FFB670"/>
<path d="M636.769 432.5C632.261 421.227 618.126 405.961 584.977 447.743C592.701 463.074 623.146 478.066 623.146 478.066C623.146 478.066 647.492 459.31 636.769 432.5Z" fill="#1A2E35"/>
<path d="M507.09 483.464L494.526 471.06L480.878 486.783C480.878 486.783 493.958 496.912 501.816 492.228L507.09 483.464Z" fill="#FFB670"/>
<path d="M473.917 469.194L470.294 475.349C468.854 477.799 469.846 480.723 472.638 482.257L480.877 486.783L494.528 471.061L483.256 466.593C479.779 465.215 475.567 466.389 473.917 469.194Z" fill="#FFB670"/>
<path d="M621.672 419.123C649.394 413.735 661.323 413.107 681.555 412.658C705.774 412.12 725.234 427.517 725.006 446.876C724.385 499.295 735.452 529.734 736.569 541.832C693.341 564.505 630.437 564.233 618.872 554.952C594.61 515.318 596.956 466.942 596.933 446.643C596.921 435.66 607.347 421.908 621.672 419.123Z" fill="#1A2E35"/>
<path d="M666.799 382.781C666.368 400.494 671.959 405.465 676.427 416.099C674.465 423.027 652.544 431.468 634.656 435.196C623.39 430.52 622.874 422.793 626.143 420.925C637.495 415.344 640.943 414.389 635.83 404.748L666.799 382.781Z" fill="#FFB670"/>
<mask id="mask11_155_740" style="mask-type:luminance" maskUnits="userSpaceOnUse" x="635" y="394" width="19" height="16">
<path d="M635.829 394.479H653.874V409.309H635.829V394.479Z" fill="white"/>
</mask>
<g mask="url(#mask11_155_740)">
<g opacity="0.199997">
<path d="M653.856 394.479L646.608 397.097L635.829 404.743C636.781 406.524 637.433 408.028 637.781 409.309C643.749 408.289 650.139 405.282 651.974 401.328C653.253 398.636 653.995 395.908 653.856 394.479Z" fill="black"/>
</g>
</g>
<path d="M611.028 344.71C594.38 349.95 596.948 366.273 611.662 378.769C624.438 362.96 611.028 344.71 611.028 344.71Z" fill="#1A2E35"/>
<path d="M668.325 360.025C668.944 377.611 670.427 387.887 660.351 397.585C645.196 412.172 617.205 405.906 610.005 388.776C603.524 373.357 603.601 347.187 624.301 338.836C644.697 330.609 667.706 342.438 668.325 360.025Z" fill="#FFB670"/>
<path d="M667.556 380.009C655.747 380.905 651.384 365.386 653.838 359.817C656.294 354.249 658.456 348.886 648.197 351.361C637.937 353.837 618.272 362.572 607.863 357.419C596.882 351.98 589.892 336.151 603.958 329.552C618.026 322.953 626.868 330.119 626.868 330.119C626.868 330.119 640.445 316.361 665.233 322.128C680.303 325.633 674.491 334.245 674.491 334.245C674.491 334.245 693.678 338.455 687.045 354.971C681.365 369.107 672.718 369.303 667.556 380.009Z" fill="#1A2E35"/>
<path d="M679.015 376.058C677.797 380.686 673.995 384.423 669.852 386.481C663.619 389.576 658.395 385.531 658.364 379.986C658.335 374.995 661.542 367.371 668.647 366.518C675.646 365.677 680.41 370.767 679.015 376.058Z" fill="#FFB670"/>
<path d="M637.43 373.116C637.722 374.526 637.02 375.789 635.861 375.933C634.703 376.076 633.527 375.049 633.237 373.638C632.945 372.227 633.647 370.965 634.805 370.821C635.962 370.677 637.138 371.705 637.43 373.116Z" fill="#1A2E35"/>
<path d="M614.334 375.304C614.626 376.715 613.924 377.977 612.765 378.121C611.607 378.265 610.433 377.237 610.141 375.826C609.849 374.416 610.551 373.153 611.709 373.009C612.868 372.866 614.044 373.893 614.334 375.304Z" fill="#1A2E35"/>
<path d="M621.652 372.985C621.652 372.985 619.306 381.631 615.684 386.112C619.301 388.051 624.408 386.322 624.408 386.322L621.652 372.985Z" fill="#FF8A35"/>
<path d="M632.884 389.948C639.473 388.384 641.828 384.268 641.935 384.075C642.053 383.865 641.931 383.616 641.666 383.522C641.399 383.426 641.088 383.52 640.97 383.73C640.943 383.778 638.185 388.562 630.431 389.528C630.145 389.565 629.95 389.778 629.998 390.007C630.044 390.236 630.315 390.392 630.603 390.356C631.414 390.256 632.174 390.117 632.884 389.948Z" fill="#1A2E35"/>
<path d="M641.978 365.235C642.147 365.195 642.303 365.121 642.433 365.014C642.835 364.68 642.818 364.149 642.396 363.827C638.166 360.602 633.418 361.424 633.219 361.462C632.651 361.565 632.302 362.015 632.436 362.466C632.571 362.917 633.136 363.198 633.701 363.098C633.857 363.07 637.569 362.461 640.942 365.034C641.228 365.252 641.626 365.319 641.978 365.235Z" fill="#1A2E35"/>
<path d="M605.124 368.081C605.462 368.055 605.778 367.897 605.948 367.639C608.096 364.367 611.862 364.033 612.021 364.019C612.597 363.974 613.018 363.565 612.959 363.106C612.899 362.645 612.386 362.307 611.81 362.347C611.603 362.365 606.77 362.752 604.078 366.851C603.809 367.261 604.01 367.769 604.526 367.987C604.718 368.067 604.925 368.097 605.124 368.081Z" fill="#1A2E35"/>
<path d="M716.959 433.661C718.046 437.977 718.317 441.967 718.208 445.762C718.123 449.555 717.595 453.151 716.918 456.642C715.491 463.606 713.302 470.155 710.525 476.483C707.782 482.819 704.539 488.936 700.659 494.919C698.714 497.911 696.681 500.898 694.304 503.842C691.923 506.798 689.345 509.74 686.027 512.806L685.452 513.336C685.031 513.725 684.526 514.104 684.04 514.414C678.714 517.774 673.376 519.477 668.474 520.574C663.546 521.658 658.943 522.148 654.485 522.44C645.602 522.981 637.311 522.493 629.227 521.757C621.154 520.945 613.32 519.764 605.62 518.281C597.888 516.765 590.458 515.083 582.821 512.851C578.314 511.534 575.999 507.547 577.647 503.947C579.016 500.955 582.693 499.172 586.484 499.408L586.801 499.432C593.989 499.886 601.538 500.349 608.846 500.603C616.194 500.867 623.487 501.006 630.6 500.836C637.69 500.72 644.664 500.229 650.884 499.302C653.963 498.824 656.87 498.202 659.183 497.429C661.494 496.666 663.2 495.782 663.72 495.225L661.734 496.834C663.217 495.162 664.84 492.997 666.333 490.707C667.82 488.397 669.311 485.971 670.657 483.468C673.353 478.453 675.713 473.206 677.701 467.958C679.639 462.699 681.267 457.405 682.189 452.326C683.16 447.301 683.373 442.325 682.741 438.918L682.654 438.447C681.24 430.844 687.81 423.765 697.325 422.637C706.531 421.545 715.131 426.459 716.959 433.661Z" fill="#FFB670"/>
<path d="M441.002 640.868C404.875 642.744 373.875 622.513 378.147 587.428C397.857 618.148 428.36 637.515 441.002 640.868Z" fill="#1A2E35"/>
<mask id="mask12_155_740" style="mask-type:luminance" maskUnits="userSpaceOnUse" x="392" y="576" width="50" height="65">
<path d="M392.101 576.649H441.002V640.868H392.101V576.649Z" fill="white"/>
</mask>
<g mask="url(#mask12_155_740)">
<g opacity="0.100006">
<path d="M441.002 640.868C405.421 635.532 381.662 609.794 396.683 576.65C406.25 610.314 429.795 635.115 441.002 640.868Z" fill="#1A2E35"/>
</g>
</g>
<mask id="mask13_155_740" style="mask-type:luminance" maskUnits="userSpaceOnUse" x="362" y="602" width="80" height="42">
<path d="M362.519 602.846H441.002V643.924H362.519V602.846Z" fill="white"/>
</mask>
<g mask="url(#mask13_155_740)">
<g opacity="0.100006">
<path d="M441.002 640.868C406.826 650.413 370.173 637.561 362.518 602.845C391.815 628.22 427.698 640.344 441.002 640.868Z" fill="#1A2E35"/>
</g>
</g>
<path d="M543.565 511.501C543.565 511.501 561.36 583.815 546.004 636.696C556.156 636.696 557.597 645.216 551.535 650.042H427.543C418.147 650.042 410.661 643.781 411.083 636.281C412.216 616.076 422.561 588.017 452.153 577.078C459.634 558.739 476.962 521.543 469.298 500.086C461.608 478.629 496.85 458.285 524.028 473.339C541.823 468.309 573.533 449.099 582.617 470.834C591.701 492.55 543.565 511.501 543.565 511.501Z" fill="#1A2E35"/>
<path d="M558.691 504.148C571.978 500.413 593.799 498.846 580.849 482.782C558.412 484.25 558.691 504.148 558.691 504.148Z" fill="#1A2E35"/>
<mask id="mask14_155_740" style="mask-type:luminance" maskUnits="userSpaceOnUse" x="465" y="584" width="34" height="60">
<path d="M465.413 584.433H498.531V643.984H465.413V584.433Z" fill="white"/>
</mask>
<g mask="url(#mask14_155_740)">
<g opacity="0.199997">
<path d="M497.368 643.984C497.286 643.984 497.205 643.974 497.124 643.956C496.662 643.848 496.397 643.461 496.53 643.094C497.406 640.689 495.948 638.567 494.573 637.211C490.643 633.34 482.71 630.949 475.194 631.401C474.881 631.419 474.612 631.316 474.432 631.126C474.254 630.937 474.208 630.688 474.31 630.466C487.092 602.813 465.89 585.796 465.675 585.627C465.331 585.358 465.325 584.918 465.66 584.643C465.998 584.368 466.549 584.363 466.892 584.63C467.114 584.804 488.624 602.013 476.391 629.959C484.108 629.804 491.823 632.294 495.925 636.335C498.242 638.615 499.05 641.154 498.203 643.481C498.093 643.786 497.745 643.984 497.368 643.984Z" fill="white"/>
</g>
</g>
<path d="M568.867 461.608C560.114 460.694 553.066 465.991 560.797 468.825C568.527 471.658 562 465.838 565.904 467.895C569.811 469.953 574.213 470.757 575.054 468.835C575.895 466.911 574.246 466.389 573.325 465.214C572.406 464.04 577.663 466.188 576.584 464.808C575.725 463.711 572.577 461.994 568.867 461.608Z" fill="white"/>
<path d="M571.483 480.679C580.538 486.084 577.279 493.464 586.055 491.446C590.289 490.473 591.184 480.787 583.609 475.985C580.963 477.377 577.71 473.948 577.71 473.948C577.71 473.948 576.142 479.138 571.483 480.679Z" fill="#FF857F"/>
<path d="M560.881 483.535C559.894 483.535 559.258 483.485 559.152 483.476C558.672 483.436 558.326 483.095 558.376 482.711C558.426 482.33 558.86 482.051 559.334 482.092C559.448 482.101 570.45 482.934 575.54 476.638C576.341 475.649 576.585 474.674 576.285 473.659C575.554 471.176 571.808 469.379 571.771 469.36C571.355 469.164 571.22 468.738 571.464 468.407C571.707 468.076 572.237 467.967 572.655 468.161C572.837 468.246 577.072 470.272 577.979 473.333C578.391 474.721 578.062 476.087 577.003 477.394C572.56 482.892 564.437 483.535 560.881 483.535Z" fill="white"/>
<path d="M582.202 477.076C579.313 477.076 576.626 473.991 576.323 473.636C576.054 473.318 576.16 472.885 576.559 472.67C576.957 472.455 577.497 472.537 577.769 472.857C578.396 473.597 580.539 475.683 582.2 475.683C582.219 475.683 582.241 475.683 582.262 475.683C582.486 475.676 583.175 475.654 583.894 474.642C584.132 474.308 584.662 474.192 585.082 474.381C585.501 474.571 585.647 474.996 585.407 475.331C584.418 476.723 583.185 477.048 582.326 477.074C582.285 477.076 582.243 477.076 582.202 477.076Z" fill="white"/>
<path d="M511.403 473.594C503.952 468.311 490.499 474.177 492.05 482.269C493.599 490.362 524.628 482.971 511.403 473.594Z" fill="white"/>
<path d="M509.044 474.533C507.553 472.731 503.91 474.307 503.786 476.875C503.664 479.442 511.69 477.73 509.044 474.533Z" fill="#1A2E35"/>
<path d="M516.266 471.672C515.658 473.777 519.6 474.801 522.014 473.105C524.427 471.408 517.345 467.937 516.266 471.672Z" fill="#1A2E35"/>
<path d="M481.13 481.958C478.967 467.391 447.832 497.067 449.961 515.783C452.091 534.498 472.612 532.487 478.42 531.095C484.228 529.703 483.065 495 481.13 481.958Z" fill="#1A2E35"/>
<mask id="mask15_155_740" style="mask-type:luminance" maskUnits="userSpaceOnUse" x="449" y="478" width="34" height="54">
<path d="M449.858 478.067H482.709V531.942H449.858V478.067Z" fill="white"/>
</mask>
<g mask="url(#mask15_155_740)">
<g opacity="0.800003">
<path d="M481.13 481.958C478.968 467.391 447.832 497.067 449.962 515.783C452.091 534.498 472.613 532.487 478.42 531.095C484.228 529.703 483.066 495 481.13 481.958Z" fill="white"/>
</g>
</g>
<path d="M537.898 650.042H507.466C504.608 644.307 489.393 613.048 491.228 599.462C491.228 599.462 488.509 601.263 487.138 604.047C486.163 600.743 487.465 597.104 490.948 594.414C489.486 593.689 486.395 594.952 486.395 594.952C486.395 594.952 487.022 591.778 491.159 589.661C490.553 589.254 489.903 588.456 489.207 587.397C480.146 573.7 485.977 556.902 501.751 547.88C511.323 542.406 522.472 542.609 524.98 559.148C527.491 575.667 516.502 621.624 527.468 642.246C534.668 641.411 537.199 647.665 537.898 650.042Z" fill="white"/>
<mask id="mask16_155_740" style="mask-type:luminance" maskUnits="userSpaceOnUse" x="494" y="509" width="39" height="8">
<path d="M494.419 509.567H532.527V516.423H494.419V509.567Z" fill="white"/>
</mask>
<g mask="url(#mask16_155_740)">
<g opacity="0.199997">
<path d="M515.069 516.423C506.641 516.423 498.284 514.42 494.606 510.693C494.308 510.392 494.374 509.954 494.751 509.715C495.126 509.478 495.675 509.528 495.973 509.831C501.827 515.763 521.568 516.865 531.176 511.799C531.578 511.588 532.116 511.674 532.384 511.996C532.647 512.317 532.537 512.748 532.137 512.96C527.687 515.307 521.357 516.423 515.069 516.423Z" fill="white"/>
</g>
</g>
<path d="M591.624 499.771L572.473 495.248L572.392 514.385C572.392 514.385 590.355 516.797 593.502 509.38L591.624 499.771Z" fill="#FFB670"/>
<path d="M554.173 503.052L555.56 509.763C556.113 512.434 559.006 514.393 562.393 514.391L572.392 514.385L572.473 495.249L560.018 496.678C556.179 497.119 553.541 499.994 554.173 503.052Z" fill="#FFB670"/>
<path d="M710.017 422.203C698.051 415.228 676.427 420.843 672.588 460.696C690.658 468.739 721.89 460.696 721.89 460.696C721.89 460.696 731.246 434.578 710.017 422.203Z" fill="#1A2E35"/>
</g>
</svg>
