<svg width="22" height="22" viewBox="0 0 42 42" fill="none" xmlns="http://www.w3.org/2000/svg">
<g id="Group 17">
<path id="Vector" d="M25.0615 32.1302C25.2668 36.1707 23.4812 42.3908 16.2943 41.3933C12.6196 40.1698 12.6746 37.5563 11.8091 36.0031C10.2312 33.2121 6.48631 34.3787 3.75392 33.4576C1.38654 32.6596 0.0654692 29.4081 0.629548 27.1628C1.47333 23.8042 5.65103 21.3149 9.33099 20.5464C22.8675 17.7197 23.9335 20.1631 25.0615 32.1302Z" fill="#162A51"/>
<path id="Vector_2" d="M8.76225 18.6651C11.6348 18.9782 14.4177 15.7598 14.978 11.4766C15.5383 7.1934 13.6639 3.46738 10.7913 3.1543C7.91883 2.84117 5.13594 6.05956 4.57558 10.3427C4.01527 14.6259 5.88968 18.352 8.76225 18.6651Z" fill="#162A51"/>
<path id="Vector_3" d="M19.308 15.4987C22.0588 16.3162 25.4765 13.6543 26.9416 9.55321C28.4067 5.45218 27.3644 1.46496 24.6136 0.647536C21.8628 -0.169932 18.4451 2.492 16.9799 6.59303C15.5148 10.6941 16.5571 14.6813 19.308 15.4987Z" fill="#162A51"/>
<path id="Vector_4" d="M27.4673 19.5028C29.606 21.2809 33.9195 20.1372 37.1018 16.9482C40.2841 13.7592 41.1301 9.73251 38.9913 7.95433C36.8526 6.17614 32.539 7.31984 29.3567 10.5089C26.1745 13.6979 25.3285 17.7246 27.4673 19.5028Z" fill="#162A51"/>
<path id="Vector_5" d="M27.756 31.1467C29.6032 33.1949 33.9949 32.547 37.5651 29.6997C41.135 26.8524 42.5318 22.8838 40.6846 20.8356C38.8375 18.7874 34.4458 19.4352 30.8756 22.2826C27.3054 25.1299 25.9087 29.0985 27.756 31.1467Z" fill="#162A51"/>
</g>
</svg>
