<svg width="31" height="31" viewBox="0 0 41 41" fill="none" xmlns="http://www.w3.org/2000/svg">
<g id="Group 17">
<path id="Vector" d="M12.1826 35.0163L12.1827 35.0163L12.1796 35.011C11.1471 33.1846 9.39392 32.7185 7.83052 32.5359C7.35271 32.48 6.82478 32.4451 6.32746 32.4122C6.04594 32.3936 5.77424 32.3757 5.52699 32.3549C4.78876 32.293 4.13946 32.2008 3.57336 32.01C2.72567 31.7242 1.97838 30.9603 1.49896 29.9308C1.01942 28.901 0.884216 27.763 1.09941 26.9065C1.44154 25.5446 2.49227 24.2616 3.994 23.1998C5.48437 22.1461 7.32003 21.3835 9.0354 21.0253C12.4057 20.3215 14.9233 19.9634 16.8318 19.981C18.731 19.9984 19.9049 20.3871 20.7084 21.0582C21.5225 21.738 22.1133 22.837 22.5616 24.6182C23.0092 26.3969 23.2819 28.7132 23.5639 31.702C23.6559 33.5863 23.2746 35.8991 22.1236 37.5878C21.5563 38.4202 20.8073 39.0953 19.8294 39.5165C18.8684 39.9304 17.6274 40.1242 16.0238 39.9151C14.4926 39.3856 13.8014 38.6111 13.3732 37.8375C13.1392 37.4148 12.9733 36.9728 12.799 36.4893C12.787 36.4559 12.7748 36.422 12.7625 36.3877C12.6073 35.9556 12.4281 35.4567 12.1826 35.0163Z" stroke="#3F3B3B" stroke-width="2"/>
<path id="Vector_2" d="M5.06713 9.97245C5.32515 8.00023 6.09134 6.31405 7.07284 5.17896C8.06121 4.03591 9.17677 3.53871 10.183 3.64839L10.183 3.6484C11.181 3.75717 12.1212 4.46913 12.7787 5.77604C13.4337 7.07816 13.7445 8.87401 13.4865 10.8469C13.2285 12.8191 12.4623 14.5053 11.4808 15.6403C10.4924 16.7834 9.37686 17.2806 8.37061 17.171M5.06713 9.97245L4.07558 9.84273L5.06713 9.97245ZM5.06713 9.97245C4.80905 11.9453 5.11986 13.7411 5.77491 15.0433C6.43238 16.3502 7.37258 17.0622 8.37061 17.171M8.37061 17.171L8.26225 18.1651L8.37061 17.171Z" stroke="#3F3B3B" stroke-width="2"/>
<path id="Vector_3" d="M25.4999 8.71677L26.4416 9.05321L25.4999 8.71678C24.8239 10.6091 23.7076 12.135 22.4925 13.0815C21.265 14.0375 20.0536 14.3257 19.0928 14.0402C18.1528 13.7608 17.3933 12.9126 17.0304 11.5243C16.6682 10.1384 16.745 8.32338 17.4216 6.42946C18.0977 4.53714 19.2139 3.01123 20.4291 2.06479C21.6566 1.10874 22.8679 0.820583 23.8287 1.10611L23.8287 1.10611C24.7687 1.38543 25.5282 2.23367 25.8911 3.62193C26.2534 5.00783 26.1765 6.82288 25.4999 8.71677Z" stroke="#3F3B3B" stroke-width="2"/>
<path id="Vector_4" d="M37.852 8.22327L37.852 8.22328C38.5402 8.79546 38.8588 9.81014 38.5633 11.2166C38.2689 12.6178 37.3774 14.2553 35.8939 15.7419C34.4128 17.2262 32.6902 18.2097 31.1369 18.6216C29.5567 19.0406 28.328 18.8336 27.6066 18.2338C26.9184 17.6617 26.5998 16.647 26.8953 15.2405C27.1896 13.8392 28.0812 12.2018 29.5646 10.7152C31.0458 9.23094 32.7683 8.24736 34.3216 7.8355C35.9018 7.41652 37.1306 7.62347 37.852 8.22327Z" stroke="#3F3B3B" stroke-width="2"/>
<path id="Vector_5" d="M27.9986 29.9769L27.9986 29.9769C27.4104 29.3247 27.2322 28.2538 27.7276 26.8463C28.2183 25.4518 29.3311 23.8947 30.9991 22.5644L30.4006 21.814L30.9991 22.5644C32.6655 21.2354 34.4948 20.4453 36.0722 20.2126C37.6778 19.9757 38.8333 20.3304 39.442 21.0053L39.442 21.0053C40.0301 21.6575 40.2083 22.7285 39.713 24.136C39.2222 25.5305 38.1095 27.0876 36.4415 28.418C34.7752 29.7469 32.9459 30.537 31.3685 30.7697C29.7629 31.0066 28.6073 30.6518 27.9986 29.9769Z" stroke="#3F3B3B" stroke-width="2"/>
</g>
</svg>
