<svg width="31" height="31" viewBox="0 0 43 43" fill="none" xmlns="http://www.w3.org/2000/svg">
<g id="Group 29">
<path id="Vector 25" d="M10.6556 11.3496C12.7018 9.35938 14.9139 8.3425 18.3297 7.76699C21.2652 7.2724 23.1762 7.37682 26.0038 8.16506C29.7373 9.20581 32.0408 11.4292 33.678 13.3399C35.7244 15.7283 35.2128 20.5051 35.2128 24.8838C35.2128 29.2625 41.013 31.6509 41.8637 33.6412C42.7143 35.6316 39.3056 36.0296 39.3056 36.0296H2.98145C1.75359 36.0296 0.229975 34.9835 1.44663 33.6412C2.66328 32.299 6.05132 30.4566 7.07432 27.2722C8.09732 24.0878 7.58614 22.0972 7.58593 18.9128C7.58571 15.7284 8.60936 13.3398 10.6556 11.3496Z" stroke="#3F3B3B" stroke-width="2"/>
<path id="Rectangle 31" d="M26.58 8.16517V5.5C26.58 3.01472 24.5653 1 22.08 1H21.8711C19.3858 1 17.3711 3.01472 17.3711 5.5V8.16517" stroke="#3F3B3B" stroke-width="2"/>
<path id="Subtract" fill-rule="evenodd" clip-rule="evenodd" d="M21.2467 40.2039C19.1448 40.2039 17.3486 38.3875 17.3486 36.0298H15.3486C15.3486 39.3873 17.9383 42.2039 21.2467 42.2039C24.555 42.2039 27.1447 39.3873 27.1447 36.0298H25.1447C25.1447 38.3875 23.3485 40.2039 21.2467 40.2039Z" fill="#3F3B3B"/>
</g>
</svg>
