<svg width="31" height="31" viewBox="0 0 45 45" fill="none" xmlns="http://www.w3.org/2000/svg">
<g id="Group 31">
<path id="Rectangle 32" d="M20.3421 2.20386H6C3.79086 2.20386 2 3.99472 2 6.20386V39.2039C2 41.413 3.79086 43.2039 6 43.2039H20.3421" stroke="#3F3B3B" stroke-width="3"/>
<path id="Arrow 7" d="M44.0609 23.2645C44.6467 22.6787 44.6467 21.729 44.0609 21.1432L34.515 11.5973C33.9292 11.0115 32.9794 11.0115 32.3937 11.5973C31.8079 12.183 31.8079 13.1328 32.3937 13.7186L40.8789 22.2039L32.3937 30.6891C31.8079 31.2749 31.8079 32.2247 32.3937 32.8105C32.9794 33.3962 33.9292 33.3962 34.515 32.8105L44.0609 23.2645ZM10.6318 23.7039H43.0003V20.7039H10.6318V23.7039Z" fill="#3F3B3B"/>
</g>
</svg>
