<svg width="31" height="31" viewBox="0 0 41 44" fill="none" xmlns="http://www.w3.org/2000/svg">
<g id="Group 30">
<path id="Vector 26" d="M21.1109 1.20386H20.5612C18.1964 1.20386 16.1462 2.83985 15.6213 5.14565C15.3276 6.43587 14.5408 7.55999 13.4291 8.27764L12.4937 8.88146C11.1985 9.71756 9.57019 9.84812 8.15828 9.2291C6.0198 8.29152 3.5182 9.10755 2.34389 11.1258L2.08724 11.5668C0.868141 13.662 1.27007 16.3231 3.05359 17.9648L3.28773 18.1803C4.43173 19.2333 5.08264 20.7172 5.08264 22.272V22.9956C5.08264 24.2885 4.54976 25.5243 3.60954 26.4117C1.99835 27.9326 1.66879 30.3724 2.81876 32.2661L3.10119 32.7312C4.251 34.6248 6.58391 35.4344 8.65953 34.6602C10.1266 34.1131 11.771 34.3469 13.0273 35.2814L14.2738 36.2086C15.1178 36.8364 15.6935 37.7598 15.8855 38.794C16.2524 40.7703 17.9766 42.2039 19.9867 42.2039H21.4844C23.6597 42.2039 25.522 40.6444 25.9039 38.5029C26.1305 37.2327 26.8927 36.1213 27.996 35.4524L28.7378 35.0026C30.0109 34.2308 31.5639 34.0738 32.9657 34.5751C35.2521 35.3928 37.794 34.429 38.9633 32.3008L39.0983 32.0551C40.2255 30.0035 39.8651 27.4543 38.2133 25.7956L38.0514 25.6331C37.0102 24.5876 36.4256 23.1721 36.4256 21.6965V20.9685C36.4256 19.5947 37.0044 18.2844 38.0199 17.3591C39.7499 15.7828 40.1181 13.2006 38.8977 11.2035L38.5536 10.6404C37.322 8.6251 34.8235 7.7816 32.6224 8.63807C30.8161 9.34094 28.7649 8.90763 27.3972 7.53421L26.6457 6.77959C26.0614 6.19293 25.6516 5.45553 25.4619 4.6496C24.9867 2.63066 23.185 1.20386 21.1109 1.20386Z" stroke="#3F3B3B" stroke-width="2"/>
<circle id="Ellipse 30" cx="21" cy="21.2039" r="8" stroke="#3F3B3B" stroke-width="2"/>
</g>
</svg>
